{"title":"Lost S01E06 - AVM","uid":5033220,"size":148524796,"categoryP":"video","categoryS":"tv_shows","magnet":"?xt=urn:btih:e1187ba23719b05f4d261aff141e97f3da478433&amp;dn=Lost+S01E06+-+AVM&amp;tr=udp%3A%2F%2Ftracker.openbittorrent.com%3A80&amp;tr=udp%3A%2F%2Fopen.demonii.com%3A1337&amp;tr=udp%3A%2F%2Ftracker.coppersurfer.tk%3A6969&amp;tr=udp%3A%2F%2Fexodus.desync.com%3A6969","seeders":0,"leechers":1,"uploader":"SysProfile","files":2,"time":1248988850,"description":"AVIDMobile - http://www.avidmobile.com.ar (Mobile media)\n\nVideo\nID : 1\nFormat : MPEG-4 Visual\nFormat profile : Simple@L1\nFormat settings, BVOP : No\nFormat settings, QPel : No\nFormat settings, GMC : No warppoints\nFormat settings, Matrix : Default (H.263)\nCodec ID : 20\nDuration : 42mn 47s\nBit rate mode : Variable\nBit rate : 495 Kbps\nMaximum bit rate : 2 616 Kbps\nWidth : 320 pixels\nHeight : 240 pixels\nDisplay aspect ratio : 4/3\nFrame rate mode : Variable\nFrame rate : 23.976 fps\nMinimum frame rate : 23.974 fps\nMaximum frame rate : 23.981 fps\nResolution : 24 bits\nColorimetry : 4:2:0\nScan type : Progressive\nBits/(Pixel*Frame) : 0.269\nStream size : 151 MiB (88%)\n\nAudio\nID : 2\nFormat : AAC\nFormat/Info : Advanced Audio Codec\nFormat version : Version 4\nFormat profile : LC\nFormat settings, SBR : No\nCodec ID : 40\nDuration : 42mn 47s\nBit rate mode : Variable\nBit rate : 66.15 Kbps\nMaximum bit rate : 136 Kbps\nChannel(s) : 2 channels\nChannel positions : L R\nSampling rate : 22.05 KHz\nResolution : 16 bits\nStream size : 20.1 MiB (12%)\n","torrent":{"xt":"urn:btih:e1187ba23719b05f4d261aff141e97f3da478433","amp;dn":"Lost+S01E06+-+AVM","amp;tr":["udp%3A%2F%2Ftracker.openbittorrent.com%3A80","udp%3A%2F%2Fopen.demonii.com%3A1337","udp%3A%2F%2Ftracker.coppersurfer.tk%3A6969","udp%3A%2F%2Fexodus.desync.com%3A6969"],"infoHash":"e1187ba23719b05f4d261aff141e97f3da478433","infoHashBuffer":{"type":"Buffer","data":[225,24,123,162,55,25,176,95,77,38,26,255,20,30,151,243,218,71,132,51]},"announce":[],"urlList":[]}}